<?xml version="1.0" standalone="no"?>
<!DOCTYPE svg PUBLIC "-//W3C//DTD SVG 20010904//EN"
 "http://www.w3.org/TR/2001/REC-SVG-20010904/DTD/svg10.dtd">
<svg version="1.0" xmlns="http://www.w3.org/2000/svg"
 width="920.000000pt" height="259.000000pt" viewBox="0 0 920.000000 259.000000"
 preserveAspectRatio="xMidYMid meet">

<g transform="translate(0.000000,259.000000) scale(0.100000,-0.100000)"
fill="#000000" stroke="none">
<path d="M694 1764 c-67 -14 -151 -51 -203 -89 -34 -25 -101 -108 -126 -156
-40 -75 -59 -293 -34 -384 6 -22 30 -78 52 -124 33 -67 54 -94 99 -132 31 -26
67 -50 80 -54 13 -3 32 -10 43 -14 57 -23 90 -28 173 -30 180 -4 304 52 386
174 29 43 33 77 11 95 -13 11 -20 9 -40 -10 -14 -13 -25 -29 -25 -36 0 -19
-80 -84 -135 -110 -64 -29 -128 -38 -210 -29 -159 17 -248 168 -247 420 1 183
39 311 109 361 63 46 103 57 178 51 40 -3 95 -15 122 -27 51 -22 58 -30 162
-177 41 -59 74 -85 96 -77 21 9 17 36 -28 209 -38 142 -55 167 -86 126 -13
-18 -25 -22 -42 -18 -13 3 -51 12 -84 20 -87 21 -181 25 -251 11z"/>
<path d="M1755 1758 c-32 -5 -71 -18 -86 -29 -15 -10 -30 -19 -34 -19 -17 0
-118 -96 -143 -134 -69 -110 -102 -276 -79 -396 3 -14 8 -42 12 -62 16 -85
121 -246 161 -248 6 0 31 -13 55 -30 86 -56 260 -77 384 -45 97 25 159 61 219
126 97 104 130 197 129 354 -1 162 -40 263 -138 360 -111 110 -283 155 -480
123z m193 -48 c56 -13 114 -52 146 -99 42 -61 56 -124 63 -291 8 -220 -16
-333 -91 -419 -22 -25 -143 -84 -155 -77 -4 3 -27 6 -52 7 -161 9 -238 151
-239 439 0 180 30 299 94 368 43 47 68 61 131 72 57 11 56 11 103 0z"/>
<path d="M7333 1763 c-13 -3 -23 -10 -23 -18 0 -7 -5 -15 -11 -17 -5 -2 -11
-11 -12 -20 -2 -9 -7 -22 -13 -29 -19 -28 -84 -172 -84 -188 0 -6 -4 -11 -8
-11 -4 0 -14 -17 -21 -37 -7 -21 -24 -63 -38 -93 -13 -30 -30 -68 -38 -85 -14
-33 -42 -94 -103 -225 -21 -47 -42 -97 -45 -111 -5 -18 -20 -34 -49 -47 -23
-12 -45 -19 -49 -16 -11 7 -42 -43 -34 -56 4 -6 45 -8 118 -4 63 3 131 2 155
-4 34 -8 45 -7 58 5 27 27 10 45 -61 60 -34 7 -40 12 -43 36 -4 34 81 280 108
310 11 12 290 15 299 3 4 -6 15 -33 25 -61 10 -27 21 -59 26 -70 68 -172 71
-208 18 -219 -17 -3 -41 -6 -53 -6 -27 0 -48 -22 -40 -42 5 -11 46 -14 233
-13 l227 1 0 24 c0 22 -6 26 -50 33 -62 10 -70 17 -91 75 -17 48 -63 172 -127
342 -20 52 -52 140 -71 195 -56 158 -102 267 -117 275 -22 11 -62 17 -86 13z
m-13 -168 c0 -8 14 -54 31 -102 16 -48 34 -102 38 -118 4 -17 13 -41 20 -53 7
-13 11 -28 9 -34 -6 -16 -243 -24 -252 -9 -4 5 12 50 34 98 57 120 57 121 81
186 18 51 39 68 39 32z"/>
<path d="M2539 1744 c-22 -26 2 -48 57 -54 27 -3 54 -8 60 -12 12 -8 12 -786
0 -806 -4 -7 -32 -12 -72 -12 -56 0 -64 -2 -64 -19 0 -10 6 -23 13 -27 6 -5
172 -7 372 -4 198 3 381 1 407 -3 73 -12 116 21 68 51 -11 7 -20 19 -20 27 0
17 2 20 74 132 54 85 57 103 18 103 -38 0 -88 -37 -197 -146 -106 -105 -127
-114 -273 -114 -79 0 -104 3 -117 16 -14 15 -16 58 -13 406 3 332 5 390 18
398 8 5 45 10 82 10 64 0 68 1 74 25 4 14 3 29 0 33 -4 3 -35 5 -69 2 -92 -5
-354 -3 -381 4 -15 4 -28 0 -37 -10z"/>
<path d="M3619 1739 c-19 -36 -4 -49 54 -49 50 0 55 -2 66 -27 6 -16 10 -76
10 -138 -1 -60 -2 -209 -1 -330 0 -121 -3 -245 -6 -275 l-7 -55 -57 -3 c-63
-3 -96 -26 -64 -44 9 -5 135 -11 289 -12 370 -4 449 10 563 96 207 156 225
538 34 726 -98 97 -204 126 -445 121 -229 -5 -345 -4 -387 4 -32 5 -40 2 -49
-14z m618 -59 c87 -38 135 -99 168 -214 22 -75 25 -142 13 -281 -21 -248 -124
-342 -363 -333 -58 2 -109 8 -115 14 -7 7 -9 145 -8 415 l3 404 34 11 c56 18
212 9 268 -16z"/>
<path d="M5180 1749 c-36 -4 -132 -6 -215 -4 -174 3 -211 -7 -170 -48 10 -10
27 -13 57 -10 74 9 73 18 73 -379 1 -192 -1 -368 -4 -391 l-6 -42 -65 -10
c-56 -9 -65 -13 -68 -32 -4 -29 29 -38 109 -29 68 8 237 8 321 1 48 -4 59 -2
67 13 18 34 -3 47 -78 47 -39 0 -75 5 -81 11 -7 7 -11 66 -12 160 l0 149 38
-5 c22 -3 89 -5 149 -5 90 1 118 5 155 22 96 44 149 124 157 238 9 114 -9 168
-76 235 -52 52 -61 57 -126 68 -93 16 -147 18 -225 11z m117 -60 c35 -13 92
-66 104 -98 24 -61 26 -141 5 -230 -12 -53 -22 -69 -52 -95 -21 -17 -47 -34
-58 -38 -31 -9 -159 -9 -175 1 -11 7 -13 51 -12 227 2 191 4 221 18 232 20 15
131 16 170 1z"/>
<path d="M5768 1733 c-18 -22 10 -43 56 -43 22 0 46 -4 53 -8 9 -6 13 -105 15
-403 1 -217 -2 -400 -6 -407 -4 -7 -31 -12 -67 -12 -45 0 -61 -4 -66 -16 -3
-8 -1 -20 5 -26 15 -15 851 -13 866 2 7 7 1 19 -18 39 l-28 30 22 38 c13 21
43 66 67 101 48 67 53 99 15 94 -43 -6 -136 -73 -190 -136 -41 -47 -106 -102
-135 -113 -18 -6 -82 -12 -143 -12 -94 -1 -113 2 -126 17 -14 15 -16 66 -13
403 1 212 5 391 9 398 5 8 32 11 75 10 77 -2 91 3 91 35 l0 22 -236 0 c-178 0
-238 -4 -246 -13z"/>
<path d="M7823 1739 c-30 -30 -1 -59 59 -59 37 0 108 -55 108 -83 0 -10 3 -17
8 -17 4 0 12 -10 18 -23 21 -43 105 -192 112 -197 4 -3 15 -21 24 -40 10 -19
35 -67 56 -107 l38 -72 -1 -128 c0 -70 -4 -134 -8 -141 -5 -7 -29 -12 -58 -12
-63 0 -93 -14 -80 -38 8 -15 30 -17 183 -17 95 -1 196 -4 224 -9 42 -6 54 -4
68 9 29 30 16 50 -34 53 -25 1 -60 5 -77 7 l-33 6 0 138 0 139 38 59 c20 33
55 88 77 121 22 34 58 91 80 127 122 201 131 210 205 223 46 8 67 29 57 56 -7
18 -63 20 -167 7 -30 -3 -73 -3 -94 2 -52 10 -96 0 -96 -22 0 -26 21 -41 57
-41 48 0 55 -23 27 -84 -13 -28 -24 -57 -24 -64 0 -7 -6 -15 -14 -18 -8 -3
-17 -17 -21 -32 -4 -15 -12 -34 -19 -42 -21 -26 -104 -175 -107 -194 -7 -37
-24 -25 -58 42 -19 37 -50 91 -68 120 -18 29 -33 56 -33 59 0 4 -23 46 -50 94
-28 49 -48 94 -44 102 3 9 25 18 54 22 57 8 79 27 59 51 -10 12 -24 14 -63 9
-67 -8 -294 -8 -348 0 -29 4 -47 2 -55 -6z"/>
</g>
</svg>
